<svg width="312" height="63" viewBox="0 0 312 63" fill="none" xmlns="http://www.w3.org/2000/svg">
<path d="M90.8158 43.0884C89.4098 43.0884 88.1025 42.9034 86.8938 42.5334C85.7098 42.1634 84.6245 41.6084 83.6378 40.8684C82.6758 40.1038 81.8125 39.1664 81.0478 38.0564L83.7858 34.9114C84.9945 36.6381 86.1538 37.8344 87.2638 38.5004C88.3738 39.1664 89.6935 39.4994 91.2228 39.4994C92.1601 39.4994 93.0111 39.3514 93.7758 39.0554C94.5405 38.7594 95.1448 38.3524 95.5888 37.8344C96.0328 37.3164 96.2548 36.7244 96.2548 36.0584C96.2548 35.6144 96.1808 35.1951 96.0328 34.8004C95.8848 34.4058 95.6505 34.0481 95.3298 33.7274C95.0338 33.4068 94.6391 33.1108 94.1458 32.8394C93.6771 32.5681 93.1221 32.3338 92.4808 32.1364C91.8395 31.9144 91.0995 31.7294 90.2608 31.5814C88.9288 31.3101 87.7695 30.9524 86.7828 30.5084C85.7961 30.0644 84.9698 29.5094 84.3038 28.8434C83.6378 28.1774 83.1445 27.4251 82.8238 26.5864C82.5031 25.7231 82.3428 24.7611 82.3428 23.7004C82.3428 22.6644 82.5648 21.7024 83.0088 20.8144C83.4775 19.9264 84.1065 19.1618 84.8958 18.5204C85.7098 17.8544 86.6595 17.3488 87.7448 17.0034C88.8301 16.6334 90.0018 16.4484 91.2598 16.4484C92.5918 16.4484 93.8128 16.6211 94.9228 16.9664C96.0328 17.3118 97.0195 17.8298 97.8828 18.5204C98.7461 19.1864 99.4615 20.0128 100.029 20.9994L97.2168 23.7744C96.7235 22.9604 96.1685 22.2821 95.5518 21.7394C94.9351 21.1721 94.2568 20.7528 93.5168 20.4814C92.7768 20.1854 91.9875 20.0374 91.1488 20.0374C90.1868 20.0374 89.3481 20.1854 88.6328 20.4814C87.9175 20.7774 87.3501 21.1968 86.9308 21.7394C86.5361 22.2574 86.3388 22.8741 86.3388 23.5894C86.3388 24.1074 86.4375 24.5884 86.6348 25.0324C86.8321 25.4518 87.1281 25.8341 87.5228 26.1794C87.9421 26.5001 88.4971 26.7961 89.1878 27.0674C89.8785 27.3141 90.7048 27.5361 91.6668 27.7334C93.0235 28.0294 94.2321 28.4118 95.2928 28.8804C96.3535 29.3244 97.2538 29.8548 97.9938 30.4714C98.7338 31.0881 99.2888 31.7788 99.6588 32.5434C100.053 33.3081 100.251 34.1344 100.251 35.0224C100.251 36.6751 99.8685 38.1058 99.1038 39.3144C98.3391 40.5231 97.2538 41.4604 95.8478 42.1264C94.4418 42.7678 92.7645 43.0884 90.8158 43.0884ZM104.951 50.8584V23.2934H108.799V27.7334L108.207 27.4004C108.355 26.6604 108.774 25.9574 109.465 25.2914C110.155 24.6008 110.994 24.0458 111.981 23.6264C112.992 23.1824 114.028 22.9604 115.089 22.9604C116.84 22.9604 118.394 23.3921 119.751 24.2554C121.107 25.1188 122.18 26.3028 122.97 27.8074C123.759 29.3121 124.154 31.0388 124.154 32.9874C124.154 34.9114 123.759 36.6381 122.97 38.1674C122.205 39.6721 121.144 40.8684 119.788 41.7564C118.431 42.6198 116.902 43.0514 115.2 43.0514C114.065 43.0514 112.967 42.8294 111.907 42.3854C110.846 41.9168 109.946 41.3248 109.206 40.6094C108.466 39.8941 108.009 39.1541 107.837 38.3894L108.799 37.8714V50.8584H104.951ZM114.571 39.5364C115.705 39.5364 116.717 39.2528 117.605 38.6854C118.493 38.1181 119.196 37.3411 119.714 36.3544C120.232 35.3678 120.491 34.2454 120.491 32.9874C120.491 31.7294 120.232 30.6194 119.714 29.6574C119.22 28.6708 118.53 27.8938 117.642 27.3264C116.754 26.7591 115.73 26.4754 114.571 26.4754C113.411 26.4754 112.388 26.7591 111.5 27.3264C110.612 27.8691 109.909 28.6338 109.391 29.6204C108.873 30.6071 108.614 31.7294 108.614 32.9874C108.614 34.2454 108.873 35.3678 109.391 36.3544C109.909 37.3411 110.612 38.1181 111.5 38.6854C112.388 39.2528 113.411 39.5364 114.571 39.5364ZM135.766 43.0884C134.163 43.0884 132.695 42.6444 131.363 41.7564C130.056 40.8684 129.008 39.6598 128.218 38.1304C127.429 36.6011 127.034 34.8744 127.034 32.9504C127.034 31.0018 127.429 29.2751 128.218 27.7704C129.032 26.2411 130.118 25.0448 131.474 24.1814C132.856 23.3181 134.397 22.8864 136.099 22.8864C137.111 22.8864 138.036 23.0344 138.874 23.3304C139.713 23.6264 140.441 24.0458 141.057 24.5884C141.699 25.1064 142.217 25.7108 142.611 26.4014C143.031 27.0921 143.29 27.8321 143.388 28.6214L142.537 28.3254V23.2934H146.385V42.7184H142.537V38.0934L143.425 37.8344C143.277 38.5004 142.969 39.1541 142.5 39.7954C142.056 40.4121 141.477 40.9671 140.761 41.4604C140.071 41.9538 139.294 42.3484 138.43 42.6444C137.592 42.9404 136.704 43.0884 135.766 43.0884ZM136.765 39.5734C137.925 39.5734 138.948 39.2898 139.836 38.7224C140.724 38.1551 141.415 37.3781 141.908 36.3914C142.426 35.3801 142.685 34.2331 142.685 32.9504C142.685 31.6924 142.426 30.5701 141.908 29.5834C141.415 28.5968 140.724 27.8198 139.836 27.2524C138.948 26.6851 137.925 26.4014 136.765 26.4014C135.631 26.4014 134.619 26.6851 133.731 27.2524C132.868 27.8198 132.177 28.5968 131.659 29.5834C131.166 30.5701 130.919 31.6924 130.919 32.9504C130.919 34.2331 131.166 35.3801 131.659 36.3914C132.177 37.3781 132.868 38.1551 133.731 38.7224C134.619 39.2898 135.631 39.5734 136.765 39.5734ZM151.707 42.7184V23.2934H155.555V29.3984L155.185 27.9184C155.456 26.9811 155.912 26.1301 156.554 25.3654C157.22 24.6008 157.972 23.9964 158.811 23.5524C159.674 23.1084 160.562 22.8864 161.475 22.8864C161.894 22.8864 162.289 22.9234 162.659 22.9974C163.053 23.0714 163.362 23.1578 163.584 23.2564L162.585 27.4004C162.289 27.2771 161.956 27.1784 161.586 27.1044C161.24 27.0058 160.895 26.9564 160.55 26.9564C159.884 26.9564 159.242 27.0921 158.626 27.3634C158.034 27.6101 157.503 27.9678 157.035 28.4364C156.591 28.8804 156.233 29.4108 155.962 30.0274C155.69 30.6194 155.555 31.2731 155.555 31.9884V42.7184H151.707ZM170.107 36.6504L169.922 32.5064L179.209 23.2934H184.352L170.107 36.6504ZM166.629 42.7184V15.3384H170.44V42.7184H166.629ZM179.727 42.7184L172.401 34.1714L175.102 31.6924L184.611 42.7184H179.727ZM196.613 43.0884C195.207 43.0884 193.899 42.9034 192.691 42.5334C191.507 42.1634 190.421 41.6084 189.435 40.8684C188.473 40.1038 187.609 39.1664 186.845 38.0564L189.583 34.9114C190.791 36.6381 191.951 37.8344 193.061 38.5004C194.171 39.1664 195.49 39.4994 197.02 39.4994C197.957 39.4994 198.808 39.3514 199.573 39.0554C200.337 38.7594 200.942 38.3524 201.386 37.8344C201.83 37.3164 202.052 36.7244 202.052 36.0584C202.052 35.6144 201.978 35.1951 201.83 34.8004C201.682 34.4058 201.447 34.0481 201.127 33.7274C200.831 33.4068 200.436 33.1108 199.943 32.8394C199.474 32.5681 198.919 32.3338 198.278 32.1364C197.636 31.9144 196.896 31.7294 196.058 31.5814C194.726 31.3101 193.566 30.9524 192.58 30.5084C191.593 30.0644 190.767 29.5094 190.101 28.8434C189.435 28.1774 188.941 27.4251 188.621 26.5864C188.3 25.7231 188.14 24.7611 188.14 23.7004C188.14 22.6644 188.362 21.7024 188.806 20.8144C189.274 19.9264 189.903 19.1618 190.693 18.5204C191.507 17.8544 192.456 17.3488 193.542 17.0034C194.627 16.6334 195.799 16.4484 197.057 16.4484C198.389 16.4484 199.61 16.6211 200.72 16.9664C201.83 17.3118 202.816 17.8298 203.68 18.5204C204.543 19.1864 205.258 20.0128 205.826 20.9994L203.014 23.7744C202.52 22.9604 201.965 22.2821 201.349 21.7394C200.732 21.1721 200.054 20.7528 199.314 20.4814C198.574 20.1854 197.784 20.0374 196.946 20.0374C195.984 20.0374 195.145 20.1854 194.43 20.4814C193.714 20.7774 193.147 21.1968 192.728 21.7394C192.333 22.2574 192.136 22.8741 192.136 23.5894C192.136 24.1074 192.234 24.5884 192.432 25.0324C192.629 25.4518 192.925 25.8341 193.32 26.1794C193.739 26.5001 194.294 26.7961 194.985 27.0674C195.675 27.3141 196.502 27.5361 197.464 27.7334C198.82 28.0294 200.029 28.4118 201.09 28.8804C202.15 29.3244 203.051 29.8548 203.791 30.4714C204.531 31.0881 205.086 31.7788 205.456 32.5434C205.85 33.3081 206.048 34.1344 206.048 35.0224C206.048 36.6751 205.665 38.1058 204.901 39.3144C204.136 40.5231 203.051 41.4604 201.645 42.1264C200.239 42.7678 198.561 43.0884 196.613 43.0884ZM219.813 43.0884C217.815 43.0884 216.039 42.6691 214.485 41.8304C212.955 40.9671 211.747 39.7954 210.859 38.3154C209.995 36.8354 209.564 35.1334 209.564 33.2094C209.564 31.6801 209.81 30.2864 210.304 29.0284C210.797 27.7704 211.475 26.6851 212.339 25.7724C213.227 24.8351 214.275 24.1198 215.484 23.6264C216.717 23.1084 218.049 22.8494 219.48 22.8494C220.738 22.8494 221.909 23.0961 222.995 23.5894C224.08 24.0581 225.017 24.7118 225.807 25.5504C226.621 26.3891 227.237 27.3881 227.657 28.5474C228.101 29.6821 228.31 30.9278 228.286 32.2844L228.249 33.9124H212.376L211.525 30.8784H224.956L224.401 31.5074V30.6194C224.327 29.8054 224.055 29.0778 223.587 28.4364C223.118 27.7951 222.526 27.2894 221.811 26.9194C221.095 26.5494 220.318 26.3644 219.48 26.3644C218.148 26.3644 217.025 26.6234 216.113 27.1414C215.2 27.6348 214.509 28.3748 214.041 29.3614C213.572 30.3234 213.338 31.5198 213.338 32.9504C213.338 34.3071 213.621 35.4911 214.189 36.5024C214.756 37.4891 215.558 38.2538 216.594 38.7964C217.63 39.3391 218.826 39.6104 220.183 39.6104C221.145 39.6104 222.033 39.4501 222.847 39.1294C223.685 38.8088 224.586 38.2291 225.548 37.3904L227.472 40.0914C226.88 40.6834 226.152 41.2014 225.289 41.6454C224.45 42.0894 223.55 42.4471 222.588 42.7184C221.65 42.9651 220.725 43.0884 219.813 43.0884ZM234.832 42.7184V18.3354H238.643V42.7184H234.832ZM230.799 26.9934V23.2934H243.157V26.9934H230.799ZM249.032 42.7184V18.3354H252.843V42.7184H249.032ZM244.999 26.9934V23.2934H257.357V26.9934H244.999ZM269.712 43.0884C267.714 43.0884 265.938 42.6691 264.384 41.8304C262.855 40.9671 261.646 39.7954 260.758 38.3154C259.895 36.8354 259.463 35.1334 259.463 33.2094C259.463 31.6801 259.71 30.2864 260.203 29.0284C260.696 27.7704 261.375 26.6851 262.238 25.7724C263.126 24.8351 264.174 24.1198 265.383 23.6264C266.616 23.1084 267.948 22.8494 269.379 22.8494C270.637 22.8494 271.809 23.0961 272.894 23.5894C273.979 24.0581 274.917 24.7118 275.706 25.5504C276.52 26.3891 277.137 27.3881 277.556 28.5474C278 29.6821 278.21 30.9278 278.185 32.2844L278.148 33.9124H262.275L261.424 30.8784H274.855L274.3 31.5074V30.6194C274.226 29.8054 273.955 29.0778 273.486 28.4364C273.017 27.7951 272.425 27.2894 271.71 26.9194C270.995 26.5494 270.218 26.3644 269.379 26.3644C268.047 26.3644 266.925 26.6234 266.012 27.1414C265.099 27.6348 264.409 28.3748 263.94 29.3614C263.471 30.3234 263.237 31.5198 263.237 32.9504C263.237 34.3071 263.521 35.4911 264.088 36.5024C264.655 37.4891 265.457 38.2538 266.493 38.7964C267.529 39.3391 268.725 39.6104 270.082 39.6104C271.044 39.6104 271.932 39.4501 272.746 39.1294C273.585 38.8088 274.485 38.2291 275.447 37.3904L277.371 40.0914C276.779 40.6834 276.051 41.2014 275.188 41.6454C274.349 42.0894 273.449 42.4471 272.487 42.7184C271.55 42.9651 270.625 43.0884 269.712 43.0884ZM282.327 42.7184V23.2934H286.175V29.3984L285.805 27.9184C286.076 26.9811 286.532 26.1301 287.174 25.3654C287.84 24.6008 288.592 23.9964 289.431 23.5524C290.294 23.1084 291.182 22.8864 292.095 22.8864C292.514 22.8864 292.909 22.9234 293.279 22.9974C293.673 23.0714 293.982 23.1578 294.204 23.2564L293.205 27.4004C292.909 27.2771 292.576 27.1784 292.206 27.1044C291.86 27.0058 291.515 26.9564 291.17 26.9564C290.504 26.9564 289.862 27.0921 289.246 27.3634C288.654 27.6101 288.123 27.9678 287.655 28.4364C287.211 28.8804 286.853 29.4108 286.582 30.0274C286.31 30.6194 286.175 31.2731 286.175 31.9884V42.7184H282.327ZM303.725 43.0884C302.097 43.0884 300.629 42.8048 299.322 42.2374C298.014 41.6701 296.929 40.8314 296.066 39.7214L298.656 37.5014C299.396 38.3648 300.197 38.9938 301.061 39.3884C301.949 39.7584 302.948 39.9434 304.058 39.9434C304.502 39.9434 304.909 39.8941 305.279 39.7954C305.673 39.6721 306.006 39.4994 306.278 39.2774C306.574 39.0554 306.796 38.7964 306.944 38.5004C307.092 38.1798 307.166 37.8344 307.166 37.4644C307.166 36.8231 306.931 36.3051 306.463 35.9104C306.216 35.7378 305.821 35.5528 305.279 35.3554C304.761 35.1334 304.082 34.9114 303.244 34.6894C301.813 34.3194 300.641 33.9001 299.729 33.4314C298.816 32.9628 298.113 32.4324 297.62 31.8404C297.25 31.3718 296.978 30.8661 296.806 30.3234C296.633 29.7561 296.547 29.1394 296.547 28.4734C296.547 27.6594 296.719 26.9194 297.065 26.2534C297.435 25.5628 297.928 24.9708 298.545 24.4774C299.186 23.9594 299.926 23.5648 300.765 23.2934C301.628 23.0221 302.541 22.8864 303.503 22.8864C304.415 22.8864 305.316 23.0098 306.204 23.2564C307.116 23.5031 307.955 23.8608 308.72 24.3294C309.484 24.7981 310.126 25.3531 310.644 25.9944L308.461 28.3994C307.992 27.9308 307.474 27.5238 306.907 27.1784C306.364 26.8084 305.809 26.5248 305.242 26.3274C304.674 26.1301 304.156 26.0314 303.688 26.0314C303.17 26.0314 302.701 26.0808 302.282 26.1794C301.862 26.2781 301.505 26.4261 301.209 26.6234C300.937 26.8208 300.728 27.0674 300.58 27.3634C300.432 27.6594 300.358 27.9924 300.358 28.3624C300.382 28.6831 300.456 28.9914 300.58 29.2874C300.728 29.5588 300.925 29.7931 301.172 29.9904C301.443 30.1878 301.85 30.3974 302.393 30.6194C302.935 30.8414 303.626 31.0511 304.465 31.2484C305.698 31.5691 306.709 31.9268 307.499 32.3214C308.313 32.6914 308.954 33.1231 309.423 33.6164C309.916 34.0851 310.261 34.6278 310.459 35.2444C310.656 35.8611 310.755 36.5518 310.755 37.3164C310.755 38.4264 310.434 39.4254 309.793 40.3134C309.176 41.1768 308.337 41.8551 307.277 42.3484C306.216 42.8418 305.032 43.0884 303.725 43.0884Z" fill="#FC8519"/>
<path d="M87.1879 46.7001C85.7819 46.7001 84.4746 46.5151 83.2659 46.1451C82.0819 45.7751 80.9966 45.2201 80.0099 44.4801C79.0479 43.7154 78.1846 42.7781 77.4199 41.6681L80.1579 38.5231C81.3666 40.2497 82.5259 41.4461 83.6359 42.1121C84.7459 42.7781 86.0656 43.1111 87.5949 43.1111C88.5322 43.1111 89.3832 42.9631 90.1479 42.6671C90.9126 42.3711 91.5169 41.9641 91.9609 41.4461C92.4049 40.9281 92.6269 40.3361 92.6269 39.6701C92.6269 39.2261 92.5529 38.8067 92.4049 38.4121C92.2569 38.0174 92.0226 37.6597 91.7019 37.3391C91.4059 37.0184 91.0112 36.7224 90.5179 36.4511C90.0492 36.1797 89.4942 35.9454 88.8529 35.7481C88.2116 35.5261 87.4716 35.3411 86.6329 35.1931C85.3009 34.9217 84.1416 34.5641 83.1549 34.1201C82.1682 33.6761 81.3419 33.1211 80.6759 32.4551C80.0099 31.7891 79.5166 31.0367 79.1959 30.1981C78.8752 29.3347 78.7149 28.3727 78.7149 27.3121C78.7149 26.2761 78.9369 25.3141 79.3809 24.4261C79.8496 23.5381 80.4786 22.7734 81.2679 22.1321C82.0819 21.4661 83.0316 20.9604 84.1169 20.6151C85.2022 20.2451 86.3739 20.0601 87.6319 20.0601C88.9639 20.0601 90.1849 20.2327 91.2949 20.5781C92.4049 20.9234 93.3916 21.4414 94.2549 22.1321C95.1182 22.7981 95.8336 23.6244 96.4009 24.6111L93.5889 27.3861C93.0956 26.5721 92.5406 25.8937 91.9239 25.3511C91.3072 24.7837 90.6289 24.3644 89.8889 24.0931C89.1489 23.7971 88.3596 23.6491 87.5209 23.6491C86.5589 23.6491 85.7202 23.7971 85.0049 24.0931C84.2896 24.3891 83.7222 24.8084 83.3029 25.3511C82.9082 25.8691 82.7109 26.4857 82.7109 27.2011C82.7109 27.7191 82.8096 28.2001 83.0069 28.6441C83.2042 29.0634 83.5002 29.4457 83.8949 29.7911C84.3142 30.1117 84.8692 30.4077 85.5599 30.6791C86.2506 30.9257 87.0769 31.1477 88.0389 31.3451C89.3956 31.6411 90.6042 32.0234 91.6649 32.4921C92.7256 32.9361 93.6259 33.4664 94.3659 34.0831C95.1059 34.6997 95.6609 35.3904 96.0309 36.1551C96.4256 36.9197 96.6229 37.7461 96.6229 38.6341C96.6229 40.2867 96.2406 41.7174 95.4759 42.9261C94.7112 44.1347 93.6259 45.0721 92.2199 45.7381C90.8139 46.3794 89.1366 46.7001 87.1879 46.7001ZM101.323 54.4701V26.9051H105.171V31.3451L104.579 31.0121C104.727 30.2721 105.146 29.5691 105.837 28.9031C106.527 28.2124 107.366 27.6574 108.353 27.2381C109.364 26.7941 110.4 26.5721 111.461 26.5721C113.212 26.5721 114.766 27.0037 116.123 27.8671C117.479 28.7304 118.552 29.9144 119.342 31.4191C120.131 32.9237 120.526 34.6504 120.526 36.5991C120.526 38.5231 120.131 40.2497 119.342 41.7791C118.577 43.2837 117.516 44.4801 116.16 45.3681C114.803 46.2314 113.274 46.6631 111.572 46.6631C110.437 46.6631 109.339 46.4411 108.279 45.9971C107.218 45.5284 106.318 44.9364 105.578 44.2211C104.838 43.5057 104.381 42.7657 104.209 42.0011L105.171 41.4831V54.4701H101.323ZM110.943 43.1481C112.077 43.1481 113.089 42.8644 113.977 42.2971C114.865 41.7297 115.568 40.9527 116.086 39.9661C116.604 38.9794 116.863 37.8571 116.863 36.5991C116.863 35.3411 116.604 34.2311 116.086 33.2691C115.592 32.2824 114.902 31.5054 114.014 30.9381C113.126 30.3707 112.102 30.0871 110.943 30.0871C109.783 30.0871 108.76 30.3707 107.872 30.9381C106.984 31.4807 106.281 32.2454 105.763 33.2321C105.245 34.2187 104.986 35.3411 104.986 36.5991C104.986 37.8571 105.245 38.9794 105.763 39.9661C106.281 40.9527 106.984 41.7297 107.872 42.2971C108.76 42.8644 109.783 43.1481 110.943 43.1481ZM132.139 46.7001C130.535 46.7001 129.068 46.2561 127.736 45.3681C126.428 44.4801 125.38 43.2714 124.591 41.7421C123.801 40.2127 123.407 38.4861 123.407 36.5621C123.407 34.6134 123.801 32.8867 124.591 31.3821C125.405 29.8527 126.49 28.6564 127.847 27.7931C129.228 26.9297 130.77 26.4981 132.472 26.4981C133.483 26.4981 134.408 26.6461 135.247 26.9421C136.085 27.2381 136.813 27.6574 137.43 28.2001C138.071 28.7181 138.589 29.3224 138.984 30.0131C139.403 30.7037 139.662 31.4437 139.761 32.2331L138.91 31.9371V26.9051H142.758V46.3301H138.91V41.7051L139.798 41.4461C139.65 42.1121 139.341 42.7657 138.873 43.4071C138.429 44.0237 137.849 44.5787 137.134 45.0721C136.443 45.5654 135.666 45.9601 134.803 46.2561C133.964 46.5521 133.076 46.7001 132.139 46.7001ZM133.138 43.1851C134.297 43.1851 135.321 42.9014 136.209 42.3341C137.097 41.7667 137.787 40.9897 138.281 40.0031C138.799 38.9917 139.058 37.8447 139.058 36.5621C139.058 35.3041 138.799 34.1817 138.281 33.1951C137.787 32.2084 137.097 31.4314 136.209 30.8641C135.321 30.2967 134.297 30.0131 133.138 30.0131C132.003 30.0131 130.992 30.2967 130.104 30.8641C129.24 31.4314 128.55 32.2084 128.032 33.1951C127.538 34.1817 127.292 35.3041 127.292 36.5621C127.292 37.8447 127.538 38.9917 128.032 40.0031C128.55 40.9897 129.24 41.7667 130.104 42.3341C130.992 42.9014 132.003 43.1851 133.138 43.1851ZM148.079 46.3301V26.9051H151.927V33.0101L151.557 31.5301C151.828 30.5927 152.284 29.7417 152.926 28.9771C153.592 28.2124 154.344 27.6081 155.183 27.1641C156.046 26.7201 156.934 26.4981 157.847 26.4981C158.266 26.4981 158.661 26.5351 159.031 26.6091C159.425 26.6831 159.734 26.7694 159.956 26.8681L158.957 31.0121C158.661 30.8887 158.328 30.7901 157.958 30.7161C157.612 30.6174 157.267 30.5681 156.922 30.5681C156.256 30.5681 155.614 30.7037 154.998 30.9751C154.406 31.2217 153.875 31.5794 153.407 32.0481C152.963 32.4921 152.605 33.0224 152.334 33.6391C152.062 34.2311 151.927 34.8847 151.927 35.6001V46.3301H148.079ZM166.479 40.2621L166.294 36.1181L175.581 26.9051H180.724L166.479 40.2621ZM163.001 46.3301V18.9501H166.812V46.3301H163.001ZM176.099 46.3301L168.773 37.7831L171.474 35.3041L180.983 46.3301H176.099ZM192.985 46.7001C191.579 46.7001 190.271 46.5151 189.063 46.1451C187.879 45.7751 186.793 45.2201 185.807 44.4801C184.845 43.7154 183.981 42.7781 183.217 41.6681L185.955 38.5231C187.163 40.2497 188.323 41.4461 189.433 42.1121C190.543 42.7781 191.862 43.1111 193.392 43.1111C194.329 43.1111 195.18 42.9631 195.945 42.6671C196.709 42.3711 197.314 41.9641 197.758 41.4461C198.202 40.9281 198.424 40.3361 198.424 39.6701C198.424 39.2261 198.35 38.8067 198.202 38.4121C198.054 38.0174 197.819 37.6597 197.499 37.3391C197.203 37.0184 196.808 36.7224 196.315 36.4511C195.846 36.1797 195.291 35.9454 194.65 35.7481C194.008 35.5261 193.268 35.3411 192.43 35.1931C191.098 34.9217 189.938 34.5641 188.952 34.1201C187.965 33.6761 187.139 33.1211 186.473 32.4551C185.807 31.7891 185.313 31.0367 184.993 30.1981C184.672 29.3347 184.512 28.3727 184.512 27.3121C184.512 26.2761 184.734 25.3141 185.178 24.4261C185.646 23.5381 186.275 22.7734 187.065 22.1321C187.879 21.4661 188.828 20.9604 189.914 20.6151C190.999 20.2451 192.171 20.0601 193.429 20.0601C194.761 20.0601 195.982 20.2327 197.092 20.5781C198.202 20.9234 199.188 21.4414 200.052 22.1321C200.915 22.7981 201.63 23.6244 202.198 24.6111L199.386 27.3861C198.892 26.5721 198.337 25.8937 197.721 25.3511C197.104 24.7837 196.426 24.3644 195.686 24.0931C194.946 23.7971 194.156 23.6491 193.318 23.6491C192.356 23.6491 191.517 23.7971 190.802 24.0931C190.086 24.3891 189.519 24.8084 189.1 25.3511C188.705 25.8691 188.508 26.4857 188.508 27.2011C188.508 27.7191 188.606 28.2001 188.804 28.6441C189.001 29.0634 189.297 29.4457 189.692 29.7911C190.111 30.1117 190.666 30.4077 191.357 30.6791C192.047 30.9257 192.874 31.1477 193.836 31.3451C195.192 31.6411 196.401 32.0234 197.462 32.4921C198.522 32.9361 199.423 33.4664 200.163 34.0831C200.903 34.6997 201.458 35.3904 201.828 36.1551C202.222 36.9197 202.42 37.7461 202.42 38.6341C202.42 40.2867 202.037 41.7174 201.273 42.9261C200.508 44.1347 199.423 45.0721 198.017 45.7381C196.611 46.3794 194.933 46.7001 192.985 46.7001ZM216.185 46.7001C214.187 46.7001 212.411 46.2807 210.857 45.4421C209.327 44.5787 208.119 43.4071 207.231 41.9271C206.367 40.4471 205.936 38.7451 205.936 36.8211C205.936 35.2917 206.182 33.8981 206.676 32.6401C207.169 31.3821 207.847 30.2967 208.711 29.3841C209.599 28.4467 210.647 27.7314 211.856 27.2381C213.089 26.7201 214.421 26.4611 215.852 26.4611C217.11 26.4611 218.281 26.7077 219.367 27.2011C220.452 27.6697 221.389 28.3234 222.179 29.1621C222.993 30.0007 223.609 30.9997 224.029 32.1591C224.473 33.2937 224.682 34.5394 224.658 35.8961L224.621 37.5241H208.748L207.897 34.4901H221.328L220.773 35.1191V34.2311C220.699 33.4171 220.427 32.6894 219.959 32.0481C219.49 31.4067 218.898 30.9011 218.183 30.5311C217.467 30.1611 216.69 29.9761 215.852 29.9761C214.52 29.9761 213.397 30.2351 212.485 30.7531C211.572 31.2464 210.881 31.9864 210.413 32.9731C209.944 33.9351 209.71 35.1314 209.71 36.5621C209.71 37.9187 209.993 39.1027 210.561 40.1141C211.128 41.1007 211.93 41.8654 212.966 42.4081C214.002 42.9507 215.198 43.2221 216.555 43.2221C217.517 43.2221 218.405 43.0617 219.219 42.7411C220.057 42.4204 220.958 41.8407 221.92 41.0021L223.844 43.7031C223.252 44.2951 222.524 44.8131 221.661 45.2571C220.822 45.7011 219.922 46.0587 218.96 46.3301C218.022 46.5767 217.097 46.7001 216.185 46.7001ZM231.204 46.3301V21.9471H235.015V46.3301H231.204ZM227.171 30.6051V26.9051H239.529V30.6051H227.171ZM245.405 46.3301V21.9471H249.216V46.3301H245.405ZM241.372 30.6051V26.9051H253.73V30.6051H241.372ZM266.084 46.7001C264.086 46.7001 262.31 46.2807 260.756 45.4421C259.227 44.5787 258.018 43.4071 257.13 41.9271C256.267 40.4471 255.835 38.7451 255.835 36.8211C255.835 35.2917 256.082 33.8981 256.575 32.6401C257.068 31.3821 257.747 30.2967 258.61 29.3841C259.498 28.4467 260.546 27.7314 261.755 27.2381C262.988 26.7201 264.32 26.4611 265.751 26.4611C267.009 26.4611 268.181 26.7077 269.266 27.2011C270.351 27.6697 271.289 28.3234 272.078 29.1621C272.892 30.0007 273.509 30.9997 273.928 32.1591C274.372 33.2937 274.582 34.5394 274.557 35.8961L274.52 37.5241H258.647L257.796 34.4901H271.227L270.672 35.1191V34.2311C270.598 33.4171 270.327 32.6894 269.858 32.0481C269.389 31.4067 268.797 30.9011 268.082 30.5311C267.367 30.1611 266.59 29.9761 265.751 29.9761C264.419 29.9761 263.297 30.2351 262.384 30.7531C261.471 31.2464 260.781 31.9864 260.312 32.9731C259.843 33.9351 259.609 35.1314 259.609 36.5621C259.609 37.9187 259.893 39.1027 260.46 40.1141C261.027 41.1007 261.829 41.8654 262.865 42.4081C263.901 42.9507 265.097 43.2221 266.454 43.2221C267.416 43.2221 268.304 43.0617 269.118 42.7411C269.957 42.4204 270.857 41.8407 271.819 41.0021L273.743 43.7031C273.151 44.2951 272.423 44.8131 271.56 45.2571C270.721 45.7011 269.821 46.0587 268.859 46.3301C267.922 46.5767 266.997 46.7001 266.084 46.7001ZM278.699 46.3301V26.9051H282.547V33.0101L282.177 31.5301C282.448 30.5927 282.904 29.7417 283.546 28.9771C284.212 28.2124 284.964 27.6081 285.803 27.1641C286.666 26.7201 287.554 26.4981 288.467 26.4981C288.886 26.4981 289.281 26.5351 289.651 26.6091C290.045 26.6831 290.354 26.7694 290.576 26.8681L289.577 31.0121C289.281 30.8887 288.948 30.7901 288.578 30.7161C288.232 30.6174 287.887 30.5681 287.542 30.5681C286.876 30.5681 286.234 30.7037 285.618 30.9751C285.026 31.2217 284.495 31.5794 284.027 32.0481C283.583 32.4921 283.225 33.0224 282.954 33.6391C282.682 34.2311 282.547 34.8847 282.547 35.6001V46.3301H278.699ZM300.097 46.7001C298.469 46.7001 297.001 46.4164 295.694 45.8491C294.386 45.2817 293.301 44.4431 292.438 43.3331L295.028 41.1131C295.768 41.9764 296.569 42.6054 297.433 43.0001C298.321 43.3701 299.32 43.5551 300.43 43.5551C300.874 43.5551 301.281 43.5057 301.651 43.4071C302.045 43.2837 302.378 43.1111 302.65 42.8891C302.946 42.6671 303.168 42.4081 303.316 42.1121C303.464 41.7914 303.538 41.4461 303.538 41.0761C303.538 40.4347 303.303 39.9167 302.835 39.5221C302.588 39.3494 302.193 39.1644 301.651 38.9671C301.133 38.7451 300.454 38.5231 299.616 38.3011C298.185 37.9311 297.013 37.5117 296.101 37.0431C295.188 36.5744 294.485 36.0441 293.992 35.4521C293.622 34.9834 293.35 34.4777 293.178 33.9351C293.005 33.3677 292.919 32.7511 292.919 32.0851C292.919 31.2711 293.091 30.5311 293.437 29.8651C293.807 29.1744 294.3 28.5824 294.917 28.0891C295.558 27.5711 296.298 27.1764 297.137 26.9051C298 26.6337 298.913 26.4981 299.875 26.4981C300.787 26.4981 301.688 26.6214 302.576 26.8681C303.488 27.1147 304.327 27.4724 305.092 27.9411C305.856 28.4097 306.498 28.9647 307.016 29.6061L304.833 32.0111C304.364 31.5424 303.846 31.1354 303.279 30.7901C302.736 30.4201 302.181 30.1364 301.614 29.9391C301.046 29.7417 300.528 29.6431 300.06 29.6431C299.542 29.6431 299.073 29.6924 298.654 29.7911C298.234 29.8897 297.877 30.0377 297.581 30.2351C297.309 30.4324 297.1 30.6791 296.952 30.9751C296.804 31.2711 296.73 31.6041 296.73 31.9741C296.754 32.2947 296.828 32.6031 296.952 32.8991C297.1 33.1704 297.297 33.4047 297.544 33.6021C297.815 33.7994 298.222 34.0091 298.765 34.2311C299.307 34.4531 299.998 34.6627 300.837 34.8601C302.07 35.1807 303.081 35.5384 303.871 35.9331C304.685 36.3031 305.326 36.7347 305.795 37.2281C306.288 37.6967 306.633 38.2394 306.831 38.8561C307.028 39.4727 307.127 40.1634 307.127 40.9281C307.127 42.0381 306.806 43.0371 306.165 43.9251C305.548 44.7884 304.709 45.4667 303.649 45.9601C302.588 46.4534 301.404 46.7001 300.097 46.7001Z" fill="#00F0FF"/>
<path d="M89.0019 44.8943C87.5959 44.8943 86.2885 44.7093 85.0799 44.3393C83.8959 43.9693 82.8105 43.4143 81.8239 42.6743C80.8619 41.9096 79.9985 40.9723 79.2339 39.8623L81.9719 36.7173C83.1805 38.444 84.3399 39.6403 85.4499 40.3063C86.5599 40.9723 87.8795 41.3053 89.4089 41.3053C90.3462 41.3053 91.1972 41.1573 91.9619 40.8613C92.7265 40.5653 93.3309 40.1583 93.7749 39.6403C94.2189 39.1223 94.4409 38.5303 94.4409 37.8643C94.4409 37.4203 94.3669 37.001 94.2189 36.6063C94.0709 36.2116 93.8365 35.854 93.5159 35.5333C93.2199 35.2126 92.8252 34.9166 92.3319 34.6453C91.8632 34.374 91.3082 34.1396 90.6669 33.9423C90.0255 33.7203 89.2855 33.5353 88.4469 33.3873C87.1149 33.116 85.9555 32.7583 84.9689 32.3143C83.9822 31.8703 83.1559 31.3153 82.4899 30.6493C81.8239 29.9833 81.3305 29.231 81.0099 28.3923C80.6892 27.529 80.5289 26.567 80.5289 25.5063C80.5289 24.4703 80.7509 23.5083 81.1949 22.6203C81.6635 21.7323 82.2925 20.9676 83.0819 20.3263C83.8959 19.6603 84.8455 19.1546 85.9309 18.8093C87.0162 18.4393 88.1879 18.2543 89.4459 18.2543C90.7779 18.2543 91.9989 18.427 93.1089 18.7723C94.2189 19.1176 95.2055 19.6356 96.0688 20.3263C96.9322 20.9923 97.6475 21.8186 98.2149 22.8053L95.4029 25.5803C94.9095 24.7663 94.3545 24.088 93.7379 23.5453C93.1212 22.978 92.4429 22.5586 91.7029 22.2873C90.9629 21.9913 90.1735 21.8433 89.3349 21.8433C88.3729 21.8433 87.5342 21.9913 86.8189 22.2873C86.1035 22.5833 85.5362 23.0026 85.1169 23.5453C84.7222 24.0633 84.5249 24.68 84.5249 25.3953C84.5249 25.9133 84.6235 26.3943 84.8209 26.8383C85.0182 27.2576 85.3142 27.64 85.7089 27.9853C86.1282 28.306 86.6832 28.602 87.3739 28.8733C88.0645 29.12 88.8909 29.342 89.8529 29.5393C91.2095 29.8353 92.4182 30.2176 93.4789 30.6863C94.5395 31.1303 95.4399 31.6606 96.1799 32.2773C96.9199 32.894 97.4749 33.5846 97.8449 34.3493C98.2395 35.114 98.4369 35.9403 98.4369 36.8283C98.4369 38.481 98.0545 39.9116 97.2899 41.1203C96.5252 42.329 95.4399 43.2663 94.0339 43.9323C92.6279 44.5736 90.9505 44.8943 89.0019 44.8943ZM103.137 52.6643V25.0993H106.985V29.5393L106.393 29.2063C106.541 28.4663 106.96 27.7633 107.651 27.0973C108.341 26.4066 109.18 25.8516 110.167 25.4323C111.178 24.9883 112.214 24.7663 113.275 24.7663C115.026 24.7663 116.58 25.198 117.937 26.0613C119.293 26.9246 120.366 28.1086 121.156 29.6133C121.945 31.118 122.34 32.8446 122.34 34.7933C122.34 36.7173 121.945 38.444 121.156 39.9733C120.391 41.478 119.33 42.6743 117.974 43.5623C116.617 44.4256 115.088 44.8573 113.386 44.8573C112.251 44.8573 111.153 44.6353 110.093 44.1913C109.032 43.7226 108.132 43.1306 107.392 42.4153C106.652 41.7 106.195 40.96 106.023 40.1953L106.985 39.6773V52.6643H103.137ZM112.757 41.3423C113.891 41.3423 114.903 41.0586 115.791 40.4913C116.679 39.924 117.382 39.147 117.9 38.1603C118.418 37.1736 118.677 36.0513 118.677 34.7933C118.677 33.5353 118.418 32.4253 117.9 31.4633C117.406 30.4766 116.716 29.6996 115.828 29.1323C114.94 28.565 113.916 28.2813 112.757 28.2813C111.597 28.2813 110.574 28.565 109.686 29.1323C108.798 29.675 108.095 30.4396 107.577 31.4263C107.059 32.413 106.8 33.5353 106.8 34.7933C106.8 36.0513 107.059 37.1736 107.577 38.1603C108.095 39.147 108.798 39.924 109.686 40.4913C110.574 41.0586 111.597 41.3423 112.757 41.3423ZM133.953 44.8943C132.349 44.8943 130.882 44.4503 129.55 43.5623C128.242 42.6743 127.194 41.4656 126.405 39.9363C125.615 38.407 125.221 36.6803 125.221 34.7563C125.221 32.8076 125.615 31.081 126.405 29.5763C127.219 28.047 128.304 26.8506 129.661 25.9873C131.042 25.124 132.584 24.6923 134.286 24.6923C135.297 24.6923 136.222 24.8403 137.061 25.1363C137.899 25.4323 138.627 25.8516 139.244 26.3943C139.885 26.9123 140.403 27.5166 140.798 28.2073C141.217 28.898 141.476 29.638 141.575 30.4273L140.724 30.1313V25.0993H144.572V44.5243H140.724V39.8993L141.612 39.6403C141.464 40.3063 141.155 40.96 140.687 41.6013C140.243 42.218 139.663 42.773 138.948 43.2663C138.257 43.7596 137.48 44.1543 136.617 44.4503C135.778 44.7463 134.89 44.8943 133.953 44.8943ZM134.952 41.3793C136.111 41.3793 137.135 41.0956 138.023 40.5283C138.911 39.961 139.601 39.184 140.095 38.1973C140.613 37.186 140.872 36.039 140.872 34.7563C140.872 33.4983 140.613 32.376 140.095 31.3893C139.601 30.4026 138.911 29.6256 138.023 29.0583C137.135 28.491 136.111 28.2073 134.952 28.2073C133.817 28.2073 132.806 28.491 131.918 29.0583C131.054 29.6256 130.364 30.4026 129.846 31.3893C129.352 32.376 129.106 33.4983 129.106 34.7563C129.106 36.039 129.352 37.186 129.846 38.1973C130.364 39.184 131.054 39.961 131.918 40.5283C132.806 41.0956 133.817 41.3793 134.952 41.3793ZM149.893 44.5243V25.0993H153.741V31.2043L153.371 29.7243C153.642 28.787 154.098 27.936 154.74 27.1713C155.406 26.4066 156.158 25.8023 156.997 25.3583C157.86 24.9143 158.748 24.6923 159.661 24.6923C160.08 24.6923 160.475 24.7293 160.845 24.8033C161.239 24.8773 161.548 24.9636 161.77 25.0623L160.771 29.2063C160.475 29.083 160.142 28.9843 159.772 28.9103C159.426 28.8116 159.081 28.7623 158.736 28.7623C158.07 28.7623 157.428 28.898 156.812 29.1693C156.22 29.416 155.689 29.7736 155.221 30.2423C154.777 30.6863 154.419 31.2166 154.148 31.8333C153.876 32.4253 153.741 33.079 153.741 33.7943V44.5243H149.893ZM168.293 38.4563L168.108 34.3123L177.395 25.0993H182.538L168.293 38.4563ZM164.815 44.5243V17.1443H168.626V44.5243H164.815ZM177.913 44.5243L170.587 35.9773L173.288 33.4983L182.797 44.5243H177.913ZM194.799 44.8943C193.393 44.8943 192.085 44.7093 190.877 44.3393C189.693 43.9693 188.607 43.4143 187.621 42.6743C186.659 41.9096 185.795 40.9723 185.031 39.8623L187.769 36.7173C188.977 38.444 190.137 39.6403 191.247 40.3063C192.357 40.9723 193.676 41.3053 195.206 41.3053C196.143 41.3053 196.994 41.1573 197.759 40.8613C198.523 40.5653 199.128 40.1583 199.572 39.6403C200.016 39.1223 200.238 38.5303 200.238 37.8643C200.238 37.4203 200.164 37.001 200.016 36.6063C199.868 36.2116 199.633 35.854 199.313 35.5333C199.017 35.2126 198.622 34.9166 198.129 34.6453C197.66 34.374 197.105 34.1396 196.464 33.9423C195.822 33.7203 195.082 33.5353 194.244 33.3873C192.912 33.116 191.752 32.7583 190.766 32.3143C189.779 31.8703 188.953 31.3153 188.287 30.6493C187.621 29.9833 187.127 29.231 186.807 28.3923C186.486 27.529 186.326 26.567 186.326 25.5063C186.326 24.4703 186.548 23.5083 186.992 22.6203C187.46 21.7323 188.089 20.9676 188.879 20.3263C189.693 19.6603 190.642 19.1546 191.728 18.8093C192.813 18.4393 193.985 18.2543 195.243 18.2543C196.575 18.2543 197.796 18.427 198.906 18.7723C200.016 19.1176 201.002 19.6356 201.866 20.3263C202.729 20.9923 203.444 21.8186 204.012 22.8053L201.2 25.5803C200.706 24.7663 200.151 24.088 199.535 23.5453C198.918 22.978 198.24 22.5586 197.5 22.2873C196.76 21.9913 195.97 21.8433 195.132 21.8433C194.17 21.8433 193.331 21.9913 192.616 22.2873C191.9 22.5833 191.333 23.0026 190.914 23.5453C190.519 24.0633 190.322 24.68 190.322 25.3953C190.322 25.9133 190.42 26.3943 190.618 26.8383C190.815 27.2576 191.111 27.64 191.506 27.9853C191.925 28.306 192.48 28.602 193.171 28.8733C193.861 29.12 194.688 29.342 195.65 29.5393C197.006 29.8353 198.215 30.2176 199.276 30.6863C200.336 31.1303 201.237 31.6606 201.977 32.2773C202.717 32.894 203.272 33.5846 203.642 34.3493C204.036 35.114 204.234 35.9403 204.234 36.8283C204.234 38.481 203.851 39.9116 203.087 41.1203C202.322 42.329 201.237 43.2663 199.831 43.9323C198.425 44.5736 196.747 44.8943 194.799 44.8943ZM217.999 44.8943C216.001 44.8943 214.225 44.475 212.671 43.6363C211.141 42.773 209.933 41.6013 209.045 40.1213C208.181 38.6413 207.75 36.9393 207.75 35.0153C207.75 33.486 207.996 32.0923 208.49 30.8343C208.983 29.5763 209.661 28.491 210.525 27.5783C211.413 26.641 212.461 25.9256 213.67 25.4323C214.903 24.9143 216.235 24.6553 217.666 24.6553C218.924 24.6553 220.095 24.902 221.181 25.3953C222.266 25.864 223.203 26.5176 223.993 27.3563C224.807 28.195 225.423 29.194 225.843 30.3533C226.287 31.488 226.496 32.7336 226.472 34.0903L226.435 35.7183H210.562L209.711 32.6843H223.142L222.587 33.3133V32.4253C222.513 31.6113 222.241 30.8836 221.773 30.2423C221.304 29.601 220.712 29.0953 219.997 28.7253C219.281 28.3553 218.504 28.1703 217.666 28.1703C216.334 28.1703 215.211 28.4293 214.299 28.9473C213.386 29.4406 212.695 30.1806 212.227 31.1673C211.758 32.1293 211.524 33.3256 211.524 34.7563C211.524 36.113 211.807 37.297 212.375 38.3083C212.942 39.295 213.744 40.0596 214.78 40.6023C215.816 41.145 217.012 41.4163 218.369 41.4163C219.331 41.4163 220.219 41.256 221.033 40.9353C221.871 40.6146 222.772 40.035 223.734 39.1963L225.658 41.8973C225.066 42.4893 224.338 43.0073 223.475 43.4513C222.636 43.8953 221.736 44.253 220.774 44.5243C219.836 44.771 218.911 44.8943 217.999 44.8943ZM233.018 44.5243V20.1413H236.829V44.5243H233.018ZM228.985 28.7993V25.0993H241.343V28.7993H228.985ZM247.218 44.5243V20.1413H251.029V44.5243H247.218ZM243.185 28.7993V25.0993H255.543V28.7993H243.185ZM267.898 44.8943C265.9 44.8943 264.124 44.475 262.57 43.6363C261.041 42.773 259.832 41.6013 258.944 40.1213C258.081 38.6413 257.649 36.9393 257.649 35.0153C257.649 33.486 257.896 32.0923 258.389 30.8343C258.882 29.5763 259.561 28.491 260.424 27.5783C261.312 26.641 262.36 25.9256 263.569 25.4323C264.802 24.9143 266.134 24.6553 267.565 24.6553C268.823 24.6553 269.995 24.902 271.08 25.3953C272.165 25.864 273.103 26.5176 273.892 27.3563C274.706 28.195 275.323 29.194 275.742 30.3533C276.186 31.488 276.396 32.7336 276.371 34.0903L276.334 35.7183H260.461L259.61 32.6843H273.041L272.486 33.3133V32.4253C272.412 31.6113 272.141 30.8836 271.672 30.2423C271.203 29.601 270.611 29.0953 269.896 28.7253C269.181 28.3553 268.404 28.1703 267.565 28.1703C266.233 28.1703 265.111 28.4293 264.198 28.9473C263.285 29.4406 262.595 30.1806 262.126 31.1673C261.657 32.1293 261.423 33.3256 261.423 34.7563C261.423 36.113 261.707 37.297 262.274 38.3083C262.841 39.295 263.643 40.0596 264.679 40.6023C265.715 41.145 266.911 41.4163 268.268 41.4163C269.23 41.4163 270.118 41.256 270.932 40.9353C271.771 40.6146 272.671 40.035 273.633 39.1963L275.557 41.8973C274.965 42.4893 274.237 43.0073 273.374 43.4513C272.535 43.8953 271.635 44.253 270.673 44.5243C269.736 44.771 268.811 44.8943 267.898 44.8943ZM280.513 44.5243V25.0993H284.361V31.2043L283.991 29.7243C284.262 28.787 284.718 27.936 285.36 27.1713C286.026 26.4066 286.778 25.8023 287.617 25.3583C288.48 24.9143 289.368 24.6923 290.281 24.6923C290.7 24.6923 291.095 24.7293 291.465 24.8033C291.859 24.8773 292.168 24.9636 292.39 25.0623L291.391 29.2063C291.095 29.083 290.762 28.9843 290.392 28.9103C290.046 28.8116 289.701 28.7623 289.356 28.7623C288.69 28.7623 288.048 28.898 287.432 29.1693C286.84 29.416 286.309 29.7736 285.841 30.2423C285.397 30.6863 285.039 31.2166 284.768 31.8333C284.496 32.4253 284.361 33.079 284.361 33.7943V44.5243H280.513ZM301.911 44.8943C300.283 44.8943 298.815 44.6106 297.508 44.0433C296.2 43.476 295.115 42.6373 294.252 41.5273L296.842 39.3073C297.582 40.1706 298.383 40.7996 299.247 41.1943C300.135 41.5643 301.134 41.7493 302.244 41.7493C302.688 41.7493 303.095 41.7 303.465 41.6013C303.859 41.478 304.192 41.3053 304.464 41.0833C304.76 40.8613 304.982 40.6023 305.13 40.3063C305.278 39.9856 305.352 39.6403 305.352 39.2703C305.352 38.629 305.117 38.111 304.649 37.7163C304.402 37.5436 304.007 37.3586 303.465 37.1613C302.947 36.9393 302.268 36.7173 301.43 36.4953C299.999 36.1253 298.827 35.706 297.915 35.2373C297.002 34.7686 296.299 34.2383 295.806 33.6463C295.436 33.1776 295.164 32.672 294.992 32.1293C294.819 31.562 294.733 30.9453 294.733 30.2793C294.733 29.4653 294.905 28.7253 295.251 28.0593C295.621 27.3686 296.114 26.7766 296.731 26.2833C297.372 25.7653 298.112 25.3706 298.951 25.0993C299.814 24.828 300.727 24.6923 301.689 24.6923C302.601 24.6923 303.502 24.8156 304.39 25.0623C305.302 25.309 306.141 25.6666 306.906 26.1353C307.67 26.604 308.312 27.159 308.83 27.8003L306.647 30.2053C306.178 29.7366 305.66 29.3296 305.093 28.9843C304.55 28.6143 303.995 28.3306 303.428 28.1333C302.86 27.936 302.342 27.8373 301.874 27.8373C301.356 27.8373 300.887 27.8866 300.468 27.9853C300.048 28.084 299.691 28.232 299.395 28.4293C299.123 28.6266 298.914 28.8733 298.766 29.1693C298.618 29.4653 298.544 29.7983 298.544 30.1683C298.568 30.489 298.642 30.7973 298.766 31.0933C298.914 31.3646 299.111 31.599 299.358 31.7963C299.629 31.9936 300.036 32.2033 300.579 32.4253C301.121 32.6473 301.812 32.857 302.651 33.0543C303.884 33.375 304.895 33.7326 305.685 34.1273C306.499 34.4973 307.14 34.929 307.609 35.4223C308.102 35.891 308.447 36.4336 308.645 37.0503C308.842 37.667 308.941 38.3576 308.941 39.1223C308.941 40.2323 308.62 41.2313 307.979 42.1193C307.362 42.9826 306.523 43.661 305.463 44.1543C304.402 44.6476 303.218 44.8943 301.911 44.8943Z" fill="white"/>
<path d="M40.3549 24.4679L35.144 35.3296L45.2676 29.4998L71.3489 0.0376449L40.2212 23.4624L40.3549 24.4679Z" fill="#FC8519"/>
<path d="M41.5708 37.8905L35.2999 36.0234L37.6052 48.8466L40.3306 45.9639L57.3852 62.9119L41.5708 37.8905Z" fill="#00F0FF"/>
<path d="M30.4247 45.9011L35.1057 35.9572L32.2135 36.2578L7.20794e-06 61.6607L30.4247 45.9011Z" fill="#FC8519"/>
<path d="M23.9552 29.8367L34.9463 35.2837L31.5646 28.3435L17.3544 14.6983L17.9528 16.8821L27.4713 28.9558L23.9552 29.8367Z" fill="#00F0FF"/>
</svg>
